<?xml version="1.0" encoding="UTF-8" standalone="no"?>
<svg
   xmlns:dc="http://purl.org/dc/elements/1.1/"
   xmlns:cc="http://creativecommons.org/ns#"
   xmlns:rdf="http://www.w3.org/1999/02/22-rdf-syntax-ns#"
   xmlns:svg="http://www.w3.org/2000/svg"
   xmlns="http://www.w3.org/2000/svg"
   viewBox="0 0 690.38666 95.613335"
   height="95.613335"
   width="690.38666"
   xml:space="preserve"
   id="svg2"
   version="1.1"><metadata
     id="metadata8"><rdf:RDF><cc:Work
         rdf:about=""><dc:format>image/svg+xml</dc:format><dc:type
           rdf:resource="http://purl.org/dc/dcmitype/StillImage" /></cc:Work></rdf:RDF></metadata><defs
     id="defs6"><clipPath
       id="clipPath20"
       clipPathUnits="userSpaceOnUse"><path
         id="path18"
         d="M 0,0 H 5177.93 V 717 H 0 Z" /></clipPath></defs><g
     transform="matrix(1.3333333,0,0,-1.3333333,0,95.613333)"
     id="g10"><g
       transform="scale(0.1)"
       id="g12"><g
         id="g14"><g
           clip-path="url(#clipPath20)"
           id="g16"><path
             id="path22"
             style="fill:#162d66;fill-opacity:1;fill-rule:nonzero;stroke:none"
             d="m 5177.93,98.9648 c 0,-50.2148 -40.71,-90.93746 -90.93,-90.93746 -50.23,0 -90.94,40.72266 -90.94,90.93746 0,50.2342 40.71,90.9372 90.94,90.9372 50.22,0 90.93,-40.703 90.93,-90.9372" /><path
             id="path24"
             style="fill:#162d66;fill-opacity:1;fill-rule:nonzero;stroke:none"
             d="m 5177.93,483.969 c 0,-50.223 -40.71,-90.938 -90.93,-90.938 -50.23,0 -90.94,40.715 -90.94,90.938 0,50.226 40.71,90.937 90.94,90.937 50.22,0 90.93,-40.711 90.93,-90.937" /><path
             id="path26"
             style="fill:#162d66;fill-opacity:1;fill-rule:nonzero;stroke:none"
             d="m 1599.45,114.062 v 297.286 c 0,109.179 -57.05,177.109 -171.08,177.109 -70.4,0 -123.83,-36.348 -197.78,-80.043 l -15.79,78.836 -211.13,-32.758 v -38.785 l 40.02,-6.09 c 20.67,-2.437 29.17,-10.906 29.17,-55.808 V 112.852 c 0,-47.3559 -7.82,-51.8442 -67.14,-56.3481 L 995.168,56.0234 985,56.4922 c -59.551,4.6094 -67.434,10.1406 -67.434,57.5698 v 297.286 c 0,109.179 -56.98,177.109 -171.078,177.109 -70.336,0 -123.734,-36.348 -197.75,-80.043 L 532.949,587.25 321.816,554.492 v -38.785 l 40.055,-6.09 c 20.641,-2.437 29.141,-10.906 29.141,-55.808 V 112.852 c 0,-47.9497 -8.063,-51.9536 -69.446,-56.5239 l -9.527,-0.2929 -10.309,0.4687 v -0.0195 c -59.683,4.6172 -67.515,10.1172 -67.515,57.5776 V 579.957 L 225.684,587.25 6.08984,554.492 v -38.785 l 41.28126,-6.09 C 67.9531,507.18 76.457,497.477 76.457,452.574 V 114.062 C 76.457,64.3047 69.1602,59.4531 0,55.8086 V 14.5781 h 301.414 v -0.1054 h 21.098 v 0.1054 h 292.949 v 41.2305 c -48.52,4.8555 -66.723,4.8555 -66.723,54.6294 v 266.914 c 0,26.703 2.414,49.757 12.117,66.753 15.79,32.758 50.993,61.872 101.95,61.872 63.074,0 97.004,-37.641 97.004,-112.832 V 107.996 c 0,-49.7421 -18.137,-47.3319 -65.485,-52.1874 V 14.5781 h 290.371 v -0.1054 h 21.095 v 0.1054 h 291.52 v 41.2305 c -48.52,4.8555 -66.72,4.8555 -66.72,54.6294 v 266.914 c 0,26.703 2.44,49.757 12.14,66.753 15.77,32.758 50.96,61.872 101.89,61.872 63.1,0 97.07,-37.641 97.07,-112.832 V 107.996 c 0,-49.7421 -18.17,-47.3319 -65.48,-52.1874 V 14.5781 h 299.66 v 41.2305 c -67.98,4.8555 -76.42,8.4961 -76.42,58.2534" /><path
             id="path28"
             style="fill:#162d66;fill-opacity:1;fill-rule:nonzero;stroke:none"
             d="m 1953.24,49.7461 c -86.13,0 -123.73,91.0159 -123.73,242.6559 v 1.235 c 0,155.289 37.6,245.093 123.73,245.093 84.92,0 121.36,-89.804 121.36,-245.093 0,-152.875 -36.44,-243.8909 -121.36,-243.8909 z m 1.24,538.7109 h -1.24 c -202.63,0 -291.2,-110.391 -291.2,-294.82 C 1662.04,110.438 1750.61,0 1953.24,0 2153.47,0 2242,110.438 2242,293.637 c 0,184.429 -88.53,294.82 -287.52,294.82" /><path
             id="path30"
             style="fill:#162d66;fill-opacity:1;fill-rule:nonzero;stroke:none"
             d="m 2826.94,573.93 h -231.78 v -42.489 l 57.05,-6.031 c 20.61,-2.472 24.26,-15.793 18.17,-35.195 C 2642.5,387.09 2597.6,258.438 2558.79,145.613 h -3.68 c -32.72,93.418 -88.57,248.739 -120.12,347.008 -7.26,21.883 -4.82,30.317 15.79,33.965 l 44.9,4.855 v 42.489 h -293.64 v -42.489 c 46.11,-2.414 60.69,-12.117 75.22,-49.726 57.05,-149.235 117.71,-311.844 173.52,-467.1369 h 115.24 c 58.26,157.7069 123.8,344.6059 178.4,468.3439 18.2,40.016 35.15,46.105 82.52,48.519 v 42.489" /><path
             id="path32"
             style="fill:#162d66;fill-opacity:1;fill-rule:nonzero;stroke:none"
             d="m 3134.74,168.66 c 0,-67.945 -46.11,-86.1209 -80.11,-86.1209 -49.71,0 -88.55,38.8089 -88.55,100.6839 0,53.398 19.43,82.507 59.45,101.922 38.81,20.636 82.55,36.398 109.21,49.746 z m 186.84,-91.0038 c -19.4,7.293 -32.72,27.8988 -32.72,88.5938 v 259.652 c 0,70.368 -23.08,162.555 -217.22,162.555 -160.17,0 -251.15,-67.93 -251.15,-138.297 0,-48.515 64.28,-67.953 92.19,-67.953 25.52,0 37.64,16.996 46.13,42.488 27.91,98.243 65.51,114.035 100.69,114.035 41.28,0 75.24,-23.023 75.24,-95.859 V 390.703 C 3097.14,362.797 2998.83,333.688 2921.2,308.223 2832.6,277.852 2803.49,228.098 2803.49,165.02 2803.49,78.8555 2860.51,0 2974.54,0 c 71.6,0 125.01,41.25 163.81,66.7461 C 3151.73,25.4883 3175.99,0 3226.97,0 3287.65,0 3342.22,16.9648 3375,33.9844 l -3.66,38.8476 c -14.55,-1.2304 -37.61,0 -49.76,4.8242" /><path
             id="path34"
             style="fill:#162d66;fill-opacity:1;fill-rule:nonzero;stroke:none"
             d="m 4021.32,80.0664 c -40.02,0 -71.56,29.1716 -71.56,106.7966 v 331.258 h 124.96 V 573.93 H 3949.76 V 717.074 H 3891.5 L 3798.08,573.93 h -216.25 v 143.144 h -58.22 L 3430.19,573.93 h -76.46 v -55.809 h 70.37 V 143.176 C 3424.1,36.3672 3502.96,0 3561.21,0 c 49.76,0 101.93,20.6367 160.15,57.0391 l -12.09,35.207 c -18.24,-8.5078 -40.08,-12.1797 -55.84,-12.1797 -40.06,0 -71.6,29.1716 -71.6,106.7966 v 331.258 h 210.2 V 143.176 C 3792.03,36.3672 3870.89,0 3929.14,0 c 49.76,0 101.91,20.6367 160.13,57.0391 l -12.11,35.207 c -18.2,-8.5078 -40.04,-12.1797 -55.84,-12.1797" /><path
             id="path36"
             style="fill:#162d66;fill-opacity:1;fill-rule:nonzero;stroke:none"
             d="m 4340.03,114.062 v 465.895 l -8.45,7.293 -219.67,-32.758 v -38.785 l 41.29,-6.09 c 20.6,-2.437 29.12,-12.14 29.12,-57.043 V 114.062 c 0,-49.7573 -7.27,-54.6089 -76.43,-58.2534 V 14.5781 h 310.61 v 41.2305 c -67.97,4.8555 -76.47,8.4961 -76.47,58.2534" /><path
             id="path38"
             style="fill:#162d66;fill-opacity:1;fill-rule:nonzero;stroke:none"
             d="m 4742.87,81.3008 c -87.37,0 -150.45,71.5702 -150.45,234.1872 0,156.524 52.16,223.242 108,223.242 42.45,0 64.28,-35.195 84.93,-101.918 7.26,-25.464 21.85,-37.609 50.95,-37.609 35.2,0 88.58,19.406 88.58,67.926 0,74.043 -106.78,121.328 -213.54,121.328 -191.74,0 -286.38,-122.535 -286.38,-298.469 C 4424.96,94.6484 4528.12,0 4691.91,0 c 92.21,0 203.89,32.7539 242.67,172.285 l -38.78,18.203 C 4858.12,112.852 4809.64,81.3008 4742.87,81.3008" /></g></g></g></g></svg>