<?xml version="1.0" encoding="UTF-8" standalone="no"?>
<svg
   xmlns:dc="http://purl.org/dc/elements/1.1/"
   xmlns:cc="http://creativecommons.org/ns#"
   xmlns:rdf="http://www.w3.org/1999/02/22-rdf-syntax-ns#"
   xmlns:svg="http://www.w3.org/2000/svg"
   xmlns="http://www.w3.org/2000/svg"
   viewBox="0 0 656.89331 272.90668"
   height="272.90668"
   width="656.89331"
   xml:space="preserve"
   id="svg2"
   version="1.1"><metadata
     id="metadata8"><rdf:RDF><cc:Work
         rdf:about=""><dc:format>image/svg+xml</dc:format><dc:type
           rdf:resource="http://purl.org/dc/dcmitype/StillImage" /></cc:Work></rdf:RDF></metadata><defs
     id="defs6"><clipPath
       id="clipPath20"
       clipPathUnits="userSpaceOnUse"><path
         id="path18"
         d="M 0,2046.85 V 0 h 4926.7 v 2046.85 z" /></clipPath></defs><g
     transform="matrix(1.3333333,0,0,-1.3333333,0,272.90667)"
     id="g10"><g
       transform="scale(0.1)"
       id="g12"><g
         id="g14"><g
           clip-path="url(#clipPath20)"
           id="g16"><path
             id="path22"
             style="fill:#0f2752;fill-opacity:1;fill-rule:nonzero;stroke:none"
             d="m 313.609,658.289 h -125.25 v -208.75 c 0,-51.461 0,-105.828 66.02,-105.828 20.391,0 44.664,2.918 62.141,13.59 v -79.61 c -20.387,-11.652 -61.168,-15.543 -78.645,-15.543 -134.953,0 -136.898,82.532 -136.898,156.321 v 239.82 H 0 v 75.731 h 100.977 v 129.128 h 87.382 V 734.02 h 125.25 v -75.731" /><path
             id="path24"
             style="fill:#0f2752;fill-opacity:1;fill-rule:nonzero;stroke:none"
             d="m 609.73,343.711 c 93.208,0 151.461,66.988 151.461,160.199 0,93.199 -58.253,160.211 -151.461,160.211 -93.207,0 -151.464,-67.012 -151.464,-160.211 0,-93.211 58.257,-160.199 151.464,-160.199 z m 0,401.961 c 136.903,0 244.668,-107.781 244.668,-241.762 0,-133.98 -107.765,-241.762 -244.668,-241.762 -136.898,0 -244.671,107.782 -244.671,241.762 0,133.981 107.773,241.762 244.671,241.762" /><path
             id="path26"
             style="fill:#0f2752;fill-opacity:1;fill-rule:nonzero;stroke:none"
             d="m 1012.65,503.91 c 0,-93.211 58.26,-160.199 151.47,-160.199 93.2,0 151.46,66.988 151.46,160.199 0,93.199 -58.26,160.211 -151.46,160.211 -93.21,0 -151.47,-67.012 -151.47,-160.211 z m -87.38,230.11 h 87.38 v -66.032 h 1.94 c 33.98,49.524 98.07,77.684 160.2,77.684 142.73,0 234,-105.832 234,-241.762 0,-137.871 -92.24,-241.762 -234,-241.762 -66.02,0 -129.13,30.102 -160.2,77.68 h -1.94 V 0 h -87.38 v 734.02" /><path
             id="path28"
             style="fill:#0f2752;fill-opacity:1;fill-rule:nonzero;stroke:none"
             d="m 1505.87,734.02 h 87.38 V 273.801 h -87.38 z m 43.69,229.14 c 34.95,0 64.08,-29.129 64.08,-64.082 0,-34.957 -29.13,-64.09 -64.08,-64.09 -34.96,0 -64.08,29.133 -64.08,64.09 0,34.953 29.12,64.082 64.08,64.082" /><path
             id="path30"
             style="fill:#0f2752;fill-opacity:1;fill-rule:nonzero;stroke:none"
             d="m 2041.81,611.68 c -32.04,33.992 -66.03,51.461 -114.57,51.461 -95.16,0 -143.7,-76.7 -143.7,-163.121 0,-86.399 58.26,-156.309 148.55,-156.309 48.54,0 82.53,17.48 111.66,51.461 l 62.13,-62.141 c -45.63,-50.492 -107.76,-70.883 -174.76,-70.883 -141.75,0 -240.79,98.071 -240.79,239.821 0,141.75 97.09,242.73 240.79,242.73 67,0 131.07,-23.308 176.71,-72.82 l -66.02,-60.199" /><path
             id="path32"
             style="fill:#0f2752;fill-opacity:1;fill-rule:nonzero;stroke:none"
             d="m 2569,273.801 h -87.38 v 70.879 h -1.94 c -22.33,-48.539 -80.58,-82.532 -151.46,-82.532 -89.33,0 -167,53.403 -167,175.743 V 734.02 h 87.38 V 462.16 c 0,-86.41 49.52,-118.449 104.86,-118.449 72.82,0 128.16,46.609 128.16,153.398 V 734.02 H 2569 V 273.801" /><path
             id="path34"
             style="fill:#0f2752;fill-opacity:1;fill-rule:nonzero;stroke:none"
             d="m 2926.3,618.48 c -20.39,25.239 -50.49,45.641 -94.18,45.641 -40.78,0 -76.7,-18.449 -76.7,-51.473 0,-55.339 78.64,-63.097 117.48,-71.839 75.73,-18.45 133.98,-47.579 133.98,-133.989 0,-103.89 -95.14,-144.672 -186.41,-144.672 -75.73,0 -132.04,19.422 -177.68,81.563 l 66.03,54.367 c 28.15,-28.148 61.16,-54.367 111.65,-54.367 44.66,0 93.21,18.437 93.21,58.258 0,52.422 -72.82,62.14 -110.68,70.871 -74.77,18.441 -140.79,42.719 -140.79,131.07 0,96.121 88.36,141.762 174.76,141.762 61.17,0 124.28,-21.363 157.3,-75.731 L 2926.3,618.48" /><path
             id="path36"
             style="fill:#0f2752;fill-opacity:1;fill-rule:nonzero;stroke:none"
             d="m 3117.17,1766.72 c 0,-22.81 16.2,-41.31 36.21,-41.31 19.89,0 36.12,18.5 36.12,41.31 0,22.85 -16.23,41.38 -36.12,41.38 -20.01,0 -36.21,-18.53 -36.21,-41.38 z m -70.84,-61.47 c 0,0 -108.16,77.46 -148.42,122.58 -87.08,97.52 -174.58,105.06 -14.39,164.26 114.49,42.29 270.69,24.51 395.49,-15.45 64.8,-20.7 114.53,-165.1 99.04,-222.12 -15.58,-57.02 12.88,-70.01 12.88,-70.01 0,0 -15.49,2.61 -56.97,-25.84 -41.45,-28.56 -46.65,-51.89 -134.76,-62.22 -88.07,-10.41 -259.12,-12.96 -259.12,-12.96 l -190.18,197.96 296.43,-76.2" /><path
             id="path38"
             style="fill:#0f2752;fill-opacity:1;fill-rule:nonzero;stroke:none"
             d="m 2835.74,1803.32 c 0,0 -174.1,38.28 -195,31.3 -20.93,-6.93 -52.23,-3.42 -87.02,24.42 -34.87,27.85 -104.5,76.57 -76.64,111.42 27.88,34.79 55.67,90.51 101,73.1 45.2,-17.4 100.98,-24.38 93.96,-48.72 -6.91,-24.38 -13.91,-45.25 -24.28,-48.76 -10.5,-3.5 -27.95,-20.91 -52.32,-3.5 -24.39,17.4 -27.76,41.75 -27.76,41.75 0,0 24.34,-13.87 34.78,-13.87 10.42,0 24.38,3.47 20.82,13.87 -3.47,10.51 -34.77,24.46 -34.77,24.46 0,0 -34.79,6.89 -48.7,-3.54 -13.97,-10.41 -20.96,-55.66 -20.96,-55.66 0,0 34.87,-62.7 52.2,-69.67 17.46,-6.97 45.32,-10.44 59.25,-10.44 13.95,0 62.71,3.47 90.5,-3.51 27.86,-6.93 111.41,-48.75 114.94,-62.65" /><path
             id="path40"
             style="fill:#0f2752;fill-opacity:1;fill-rule:nonzero;stroke:none"
             d="m 3970.72,1007.72 c 0,0 8.45,-74.501 -30.56,-182.9 -21.59,-60.082 -5.97,-145.281 19.27,-181.73 25.27,-36.418 195.4,-144.852 364.61,-190.711 163.91,-44.449 474.05,-50.5 591.83,92.551 0,0 58.92,131.75 -98.12,297.3 -157.08,165.49 -364.49,181.84 -485.07,134.168 -120.67,-47.668 -148.87,-97.679 -115.16,-165.007 33.64,-67.321 58.86,-131.852 176.69,-109.442 117.77,22.473 134.61,42.121 103.79,98.153 -30.88,56.199 -72.97,53.347 -72.97,53.347 0,0 30.85,-50.418 -11.21,-81.301 -42,-30.91 -81.35,-16.886 -114.99,16.774 -33.66,33.656 -27.5,85.34 -2.82,103.797 42.65,31.89 255.23,53.25 370.27,-33.649 114.94,-86.922 145.87,-159.922 84.14,-204.8 -61.72,-44.879 -266.5,-148.649 -465.63,-5.54 -199.13,143.008 -277.65,229.989 -314.07,358.99" /><path
             id="path42"
             style="fill:#0f2752;fill-opacity:1;fill-rule:nonzero;stroke:none"
             d="m 3846.36,615.211 c 0,0 -354.47,49.769 -239.27,165 115.3,115.269 143.21,100.41 167.29,79.937 24.24,-20.437 93.06,-100.41 102.27,-122.679 0,0 -27.79,44.609 16.84,146.851 44.54,102.25 24.1,176.61 33.5,254.75 9.18,78 85.45,141.24 124.48,141.24 l 55.06,-139.92 192.15,-27.41 -31.57,57.67 68.85,35.29 -89.29,18.61 52.01,91.12 -117.05,-66.96 c 0,0 -65.12,128.3 -104.15,184.02 l -38.98,61.38 c 0,0 -126.43,-223.09 -174.71,-278.88 -48.44,-55.76 -153.71,-81.64 -208.33,-133.83 -42.74,-40.91 -104.08,-109.728 -137.55,-193.369 -33.46,-83.679 -69.2,-247.871 -69.2,-247.871 l 168.87,-70.859 -72.3,-91.36 94.3,36.649 -11.41,-144.57 90.65,114.082 3.57,-137.063 123.97,268.172" /><path
             id="path44"
             style="fill:#0f2752;fill-opacity:1;fill-rule:nonzero;stroke:none"
             d="m 3514.1,1036.92 c 0,0 68.85,95.65 144.34,126.32 82.43,33.46 159.8,56.71 177.82,82.45 0,0 -257.12,192.14 -276.7,240.39 0,0 -175.6,-54.23 -180.14,-325.12 l 134.68,-124.04" /><path
             id="path46"
             style="fill:#0f2752;fill-opacity:1;fill-rule:nonzero;stroke:none"
             d="m 3733.48,1631.98 c -110.81,-74.77 -128.89,-54.13 -255.11,-139.2 -126.39,-85.04 -116.02,-198.43 -219.12,-355.66 -103.14,-157.21 -208.86,-175.241 -208.86,-175.241 0,0 -48.93,10.301 -95.22,30.91 -46.45,20.641 -216.52,255.171 -216.52,255.171 l 133.99,-61.84 -33.41,180.41 151.98,-195.88 79.9,162.35 2.59,-206.14 c 36.09,2.51 61.88,28.32 77.3,72.11 15.44,43.83 48.91,128.87 48.91,128.87 l -149.52,157.18 c 208.86,20.68 280.99,74.77 319.63,116.02 38.71,41.28 39.73,44.84 60.03,47.39 12.99,1.61 35.38,-3.6 35.38,-3.6 87.62,-5.13 260.31,90.24 260.31,90.24 0,0 -67,25.77 -141.78,66.98 -74.7,41.31 -92.73,103.09 -92.73,103.09 l 74.72,-33.48 5.11,149.5 61.89,-116.02 56.73,123.73 -2.58,-136.54 144.3,-115.98 46.39,-64.47 -144.31,-79.9" /></g></g></g></g></svg>